<?xml version="1.0" encoding="UTF-8"?>
<svg version="1.1" xmlns="http://www.w3.org/2000/svg" width="1024" height="1024">
<path d="M0 0 C10.30397731 8.82825338 15.87283962 25.32174898 21.73046875 37.20703125 C25.01467533 43.85375634 28.45417719 50.41057048 31.98608398 56.92871094 C32.36708252 57.63930664 32.74808105 58.34990234 33.140625 59.08203125 C33.4715918 59.69159668 33.80255859 60.30116211 34.14355469 60.92919922 C34.96875 62.71484375 34.96875 62.71484375 35.45800781 64.87939453 C35.7108252 65.78794189 35.7108252 65.78794189 35.96875 66.71484375 C36.62875 67.04484375 37.28875 67.37484375 37.96875 67.71484375 C39.20793688 70.13315488 40.35020582 72.5529725 41.46875 75.02734375 C45.81029734 84.41014046 50.38335216 93.6708922 55.00708008 102.9168396 C55.80929312 104.52104342 56.61057612 106.12571269 57.41088867 107.73086548 C63.04035385 119.08254342 63.04035385 119.08254342 69.18261719 130.16162109 C69.96875 131.71484375 69.96875 131.71484375 69.96875 133.71484375 C70.62875 134.04484375 71.28875 134.37484375 71.96875 134.71484375 C73.29071141 137.30008136 74.51990544 139.88508063 75.71875 142.52734375 C78.58052056 148.72409581 81.52273013 154.8708633 84.60546875 160.9609375 C84.91874115 161.58084061 85.23201355 162.20074371 85.55477905 162.83943176 C86.81434043 165.32930323 88.07513211 167.81844657 89.34729004 170.3019104 C90.24589203 172.05666753 91.13673042 173.81539356 92.02734375 175.57421875 C92.54611084 176.58967773 93.06487793 177.60513672 93.59936523 178.65136719 C97.22251449 186.75678292 97.79227209 193.54819782 94.84375 201.90234375 C90.5395323 208.35867031 85.74123586 213.12661427 77.96875 214.71484375 C70.13020004 215.86037897 64.49483117 214.04730218 57.96875 209.71484375 C48.98352162 202.15571978 40.80524193 193.64365633 32.56514549 185.29470825 C30.3920099 183.0944201 28.21409751 180.89896303 26.03474426 178.70483398 C19.84706426 172.47491147 13.66224941 166.24223046 7.49389648 159.99316406 C3.69581366 156.14608147 -0.11237467 152.30924606 -3.92697716 148.47854614 C-5.3613325 147.03441656 -6.79206033 145.58667303 -8.21875954 144.13497925 C-33.15176029 118.77475125 -56.29876262 108.23400314 -92.03125 107.71484375 C-92.36125 108.37484375 -92.69125 109.03484375 -93.03125 109.71484375 C-94.206875 109.83859375 -95.3825 109.96234375 -96.59375 110.08984375 C-103.08201448 110.78625854 -108.00102082 113.25692242 -112.40625 118.08984375 C-116.44527449 123.24838046 -117.69546487 128.18339756 -117.03125 134.71484375 C-115.40756782 139.65284626 -113.44276561 144.73408996 -109.03125 147.71484375 C-106.06599951 148.62894353 -103.08675133 149.19370798 -100.03125 149.71484375 C-99.12375 149.92109375 -98.21625 150.12734375 -97.28125 150.33984375 C-94.82927331 150.74850653 -92.51259436 150.7857393 -90.03125 150.71484375 C-89.77214844 150.12058594 -89.51304687 149.52632812 -89.24609375 148.9140625 C-87.94320824 146.55546268 -86.65059696 145.24801787 -84.59375 143.52734375 C-83.99691406 143.01816406 -83.40007812 142.50898437 -82.78515625 141.984375 C-78.65142241 138.9922514 -73.90768161 139.16950537 -69.03125 139.71484375 C-64.27604654 141.04562261 -60.9489354 143.28601568 -58.03125 147.27734375 C-55.27464471 152.25972156 -55.26565623 157.16854222 -56.03125 162.71484375 C-57.76449578 167.91458109 -60.58551758 170.57667969 -65.03125 173.71484375 C-70.12310204 176.20419364 -74.62212519 175.90717771 -80.03125 174.71484375 C-85.45120513 172.50671388 -85.45120513 172.50671388 -87.17578125 170.15234375 C-90.18356069 167.8221062 -93.68028379 168.17699503 -97.34375 168.08984375 C-98.83995212 168.03820606 -100.33605413 167.98357141 -101.83203125 167.92578125 C-102.49372314 167.90821777 -103.15541504 167.8906543 -103.8371582 167.87255859 C-106.60608014 167.67352404 -109.29966063 167.20060039 -112.03125 166.71484375 C-114.02081868 170.28183156 -115.9956893 173.85653212 -117.95776367 177.4387207 C-118.62605105 178.65409675 -119.2981914 179.86736299 -119.97436523 181.07836914 C-120.95026093 182.8277792 -121.91082252 184.58571498 -122.87109375 186.34375 C-123.45238037 187.3963501 -124.03366699 188.4489502 -124.63256836 189.53344727 C-126.65960548 194.144081 -127.34122044 198.07200042 -126.40625 203.02734375 C-125.26238022 205.89991787 -125.26238022 205.89991787 -122.53125 207.02734375 C-121.29375 207.36765625 -121.29375 207.36765625 -120.03125 207.71484375 C-119.37125 208.04484375 -118.71125 208.37484375 -118.03125 208.71484375 C-119.67691523 214.3998691 -122.32157784 219.48166011 -125.03125 224.71484375 C-133.13504125 218.86322277 -139.76593487 213.49746131 -143.03125 203.71484375 C-144.85000259 192.1039272 -140.79514376 183.58133578 -135.21484375 173.69140625 C-134.71380127 172.8001001 -134.21275879 171.90879395 -133.6965332 170.99047852 C-132.68166057 169.20282919 -131.65054959 167.42428715 -130.60229492 165.65600586 C-129.89036987 164.41862671 -129.89036987 164.41862671 -129.1640625 163.15625 C-128.72980957 162.42092041 -128.29555664 161.68559082 -127.84814453 160.92797852 C-126.80947621 158.1140131 -127.17810845 156.55661555 -128.03125 153.71484375 C-128.96729676 151.85912423 -129.95072102 150.02688555 -130.96875 148.21484375 C-135.50332963 139.30958496 -137.18845917 130.16370076 -134.90625 120.3359375 C-131.45644586 110.001926 -124.21026506 102.14192217 -114.7421875 96.890625 C-107.27542022 93.34605616 -100.41778939 90.30574427 -92.03125 90.71484375 C-91.75990234 89.84239014 -91.48855469 88.96993652 -91.20898438 88.07104492 C-90.08460289 84.86688399 -88.76174133 82.02023893 -87.1875 79.015625 C-86.6095166 77.90598389 -86.0315332 76.79634277 -85.43603516 75.65307617 C-84.8011619 74.44446974 -84.16623185 73.23589314 -83.53125 72.02734375 C-82.52459655 70.10014003 -81.51949882 68.17213048 -80.51455688 66.24403381 C-79.80456868 64.88191553 -79.09408887 63.5200534 -78.38314819 62.15843201 C-75.68117349 56.97886558 -73.01032151 51.7838958 -70.3515625 46.58203125 C-69.96002991 45.81684677 -69.56849731 45.05166229 -69.1651001 44.26329041 C-66.85381884 39.74642196 -66.85381884 39.74642196 -64.5480957 35.22671509 C-60.55833153 27.3965224 -56.49194839 19.61740148 -52.21875 11.9375 C-51.85319 11.27433273 -51.48763 10.61116547 -51.11099243 9.92790222 C-46.08426354 0.99211426 -40.02720108 -4.11420844 -30.40625 -7.59765625 C-19.01106783 -10.02686175 -9.06494568 -6.83375415 0 0 Z M-31.03125 14.71484375 C-36.72475674 21.36313718 -40.46643026 29.94812397 -44.4928894 37.67102051 C-46.46853465 41.46030404 -48.45976346 45.24139179 -50.44921875 49.0234375 C-50.84172318 49.77062042 -51.2342276 50.51780334 -51.6386261 51.28762817 C-55.48439737 58.59919254 -59.42977966 65.8537958 -63.41455078 73.09057617 C-64.26235729 74.63214147 -65.10505404 76.17653608 -65.94091797 77.72460938 C-66.91266956 79.49839329 -67.93911767 81.24196119 -68.97265625 82.98046875 C-70.26416313 85.66697704 -70.26416313 85.66697704 -69.6640625 88.5 C-68.14746227 91.02240635 -68.14746227 91.02240635 -64.8984375 91.6484375 C-63.56987327 91.83274894 -62.23880779 91.99955843 -60.90625 92.15234375 C-38.3919545 95.61137908 -19.6478551 107.61143214 -3.9375 123.8046875 C-1.40721825 126.34015426 1.28146838 128.66016061 4.01171875 130.9765625 C6.43313137 133.12731822 8.68459363 135.41845079 10.96875 137.71484375 C12.32753769 139.07696236 12.32753769 139.07696236 13.71377563 140.46659851 C14.71626851 141.47209622 15.71873928 142.47761597 16.72119141 143.4831543 C22.31850482 149.09675961 27.91832479 154.70785741 33.51960182 160.31750774 C36.9024108 163.70555483 40.28426984 167.09453944 43.6640625 170.4855957 C46.9420024 173.77438564 50.22236595 177.06073992 53.50443649 180.34540749 C54.75324982 181.5960684 56.00118269 182.8476091 57.24821854 184.10004234 C58.98819793 185.84726212 60.73126274 187.59134626 62.47509766 189.3347168 C62.9894487 189.85266312 63.50379974 190.37060944 64.03373718 190.9042511 C66.25967307 193.12376541 68.3408904 194.96293735 70.96875 196.71484375 C74.79623905 196.53251783 74.79623905 196.53251783 77.96875 194.71484375 C78.87764885 188.54555405 75.99411213 184.07560729 73.2109375 178.796875 C72.71565048 177.83425247 72.22036346 176.87162994 71.71006775 175.87983704 C70.09943646 172.75625077 68.47187419 169.64184232 66.84375 166.52734375 C65.73680705 164.3890613 64.63093345 162.25022492 63.52612305 160.11083984 C60.83242173 154.90055934 58.12571328 149.697169 55.41534424 144.49554443 C53.41112021 140.6429457 51.42097046 136.78318377 49.43359375 132.921875 C42.90221681 120.21762154 42.90221681 120.21762154 36.0534668 107.68310547 C34.96977758 105.71670834 33.96062292 103.72901804 32.96875 101.71484375 C32.55238281 100.87687256 32.13601563 100.03890137 31.70703125 99.17553711 C31.23652344 98.22815674 30.76601563 97.28077637 30.28125 96.3046875 C24.7731045 85.23469943 19.22400186 74.19704231 13.42773438 63.27490234 C10.88191874 58.47086932 8.39362236 53.64354274 5.96875 48.77734375 C5.65268799 48.14497803 5.33662598 47.5126123 5.01098633 46.86108398 C3.13393213 43.093302 1.28948319 39.31109491 -0.5390625 35.51953125 C-1.19068359 34.18329712 -1.19068359 34.18329712 -1.85546875 32.82006836 C-2.69744153 31.09329723 -3.53133082 29.36255122 -4.35546875 27.62719727 C-7.2162421 21.78704177 -10.39438237 15.67700257 -16.3046875 12.48828125 C-21.92622335 11.42248821 -26.16202517 11.50186352 -31.03125 14.71484375 Z M-71.03125 87.71484375 C-70.03125 89.71484375 -70.03125 89.71484375 -70.03125 89.71484375 Z " fill="#359FFE" transform="translate(266.03125,402.28515625)"/>
<path d="M0 0 C0.474375 0.433125 0.94875 0.86625 1.4375 1.3125 C2.0975 -0.3375 2.7575 -1.9875 3.4375 -3.6875 C5.74993792 -3.71435412 8.0624627 -3.73382841 10.375 -3.75 C11.66277344 -3.76160156 12.95054687 -3.77320313 14.27734375 -3.78515625 C17.4375 -3.6875 17.4375 -3.6875 18.4375 -2.6875 C18.54734947 -0.71595031 18.58662002 1.25955982 18.59863281 3.23413086 C18.60824036 4.50312729 18.6178479 5.77212372 18.62774658 7.07957458 C18.63259781 8.47882915 18.63687583 9.8780858 18.640625 11.27734375 C18.64637817 12.70927431 18.65213588 14.14120485 18.65789795 15.57313538 C18.66842536 18.58530028 18.67425475 21.59743841 18.67773438 24.60961914 C18.683184 28.44595583 18.70712768 32.28193123 18.73570633 36.11815548 C18.75446402 39.08239214 18.75954551 42.04654469 18.76107025 45.01083565 C18.76407431 46.42325348 18.77202577 47.83567064 18.78525543 49.24802971 C18.88086022 60.25173701 17.95121565 70.15808882 11.4375 79.3125 C2.57693986 87.5152893 -6.85628288 89.66799745 -18.69921875 89.60546875 C-25.23995831 89.10945716 -33.80730261 88.06769739 -38.5625 83.3125 C-40.1201815 78.6394555 -39.2378871 74.08177195 -38.5625 69.3125 C-35.81154265 69.94969279 -33.24898983 70.77329611 -30.625 71.8125 C-22.43068419 74.90611831 -14.8022413 75.38275103 -6.54296875 72.26953125 C-3.3939267 70.74780481 -2.1871753 69.43187658 -0.5625 66.3125 C0.32621967 62.67029048 0.94305268 59.02736077 1.4375 55.3125 C0.65375 56.075625 -0.13 56.83875 -0.9375 57.625 C-6.72073271 62.36779131 -13.2667382 63.63120179 -20.625 63.3125 C-28.24276687 62.38350404 -33.96373348 59.6520556 -38.875 53.6875 C-45.93449032 43.10809669 -47.08237606 31.73321936 -45.08984375 19.3828125 C-42.71690028 10.26047894 -37.86419503 3.33384709 -29.78515625 -1.53515625 C-20.12210793 -6.54499676 -9.09143838 -5.98704479 0 0 Z M-25.5625 14.3125 C-29.74235752 20.78453745 -30.57991626 28.14781918 -29.1015625 35.65234375 C-27.49466089 41.33321356 -25.42992011 43.99851184 -20.5625 47.3125 C-18.15704362 48.51522819 -16.61253047 48.41321472 -13.9375 48.375 C-12.71160156 48.36146484 -12.71160156 48.36146484 -11.4609375 48.34765625 C-10.83445312 48.33605469 -10.20796875 48.32445312 -9.5625 48.3125 C-9.5625 47.6525 -9.5625 46.9925 -9.5625 46.3125 C-8.0775 46.8075 -8.0775 46.8075 -6.5625 47.3125 C-1.65870107 44.75843806 0.4071337 42.40028925 2.4375 37.3125 C2.7219321 34.5462584 2.85906865 32.0652244 2.8125 29.3125 C2.82410156 28.62671875 2.83570313 27.9409375 2.84765625 27.234375 C2.81656366 21.80353544 1.61078204 17.7523713 -2.02734375 13.66796875 C-5.89805613 10.55023676 -5.89805613 10.55023676 -10.5625 9.3125 C-11.635 9.18875 -12.7075 9.065 -13.8125 8.9375 C-18.71594278 9.42784428 -21.85057728 11.11169982 -25.5625 14.3125 Z " fill="#15ACFE" transform="translate(721.5625,489.6875)"/>
<path d="M0 0 C7.18091691 19.86044176 14.11938558 39.80262897 21.02124023 59.76147461 C24.62974502 70.19306731 28.25120578 80.61785013 32 91 C31 92 31 92 27.18359375 92.09765625 C25.60153318 92.09098089 24.01948841 92.07901875 22.4375 92.0625 C21.63119141 92.05798828 20.82488281 92.05347656 19.99414062 92.04882812 C17.99606244 92.03700518 15.99802217 92.01906914 14 92 C11.63635779 85.68895532 9.47881242 79.45767813 7.90625 72.8984375 C7.20234497 70.85742088 7.20234497 70.85742088 5.35058594 70.38745117 C2.36514732 69.89535613 -0.48927131 69.8885876 -3.515625 69.90234375 C-4.76601563 69.90556641 -6.01640625 69.90878906 -7.3046875 69.91210938 C-8.60664063 69.92048828 -9.90859375 69.92886719 -11.25 69.9375 C-12.56742187 69.94201172 -13.88484375 69.94652344 -15.2421875 69.95117188 C-18.49483741 69.96295684 -21.74739584 69.97940989 -25 70 C-25.81487171 72.24916619 -26.62696918 74.49926978 -27.4375 76.75 C-27.66759766 77.38421875 -27.89769531 78.0184375 -28.13476562 78.671875 C-30.65376472 84.78051174 -30.65376472 84.78051174 -30 91 C-32.76565382 91.92188461 -34.38283702 92.11785222 -37.23046875 92.09765625 C-38.03291016 92.09443359 -38.83535156 92.09121094 -39.66210938 92.08789062 C-40.49548828 92.07951172 -41.32886719 92.07113281 -42.1875 92.0625 C-43.03248047 92.05798828 -43.87746094 92.05347656 -44.74804688 92.04882812 C-46.83206155 92.03705403 -48.91603977 92.0191189 -51 92 C-44.34935398 71.78935936 -37.54039984 51.63532107 -30.5927124 31.52478027 C-29.78112602 29.17556903 -28.97045645 26.82604085 -28.16070557 24.47619629 C-27.01379754 21.14974587 -25.86301788 17.82466207 -24.7109375 14.5 C-24.19288544 12.9959964 -24.19288544 12.9959964 -23.66436768 11.46160889 C-23.34248474 10.53584045 -23.02060181 9.61007202 -22.68896484 8.65625 C-22.40983246 7.84994141 -22.13070007 7.04363281 -21.84310913 6.21289062 C-21.01155831 4.03033686 -20.20764373 2.00173906 -19 0 C-16.42578125 -0.64453125 -16.42578125 -0.64453125 -13.3125 -0.8125 C-12.29800781 -0.88082031 -11.28351563 -0.94914062 -10.23828125 -1.01953125 C-6.74347473 -0.9984528 -3.44499564 -0.56766595 0 0 Z M-10 20 C-11.57039005 24.66181068 -13.13687008 29.32490957 -14.69970703 33.98925781 C-15.23215614 35.57653441 -15.76568065 37.16345069 -16.30029297 38.75 C-17.06759689 41.02771108 -17.83105112 43.30668093 -18.59375 45.5859375 C-18.95466736 46.65320572 -18.95466736 46.65320572 -19.32287598 47.74203491 C-20.57091837 51.29348889 -20.57091837 51.29348889 -21 55 C-18.02129623 55.99290126 -16.40817115 56.05524548 -13.33203125 55.87890625 C-12.52741455 55.83580322 -11.72279785 55.7927002 -10.89379883 55.74829102 C-9.87697021 55.68697998 -8.8601416 55.62566895 -7.8125 55.5625 C-4.574375 55.376875 -1.33625 55.19125 2 55 C-1.63 43.45 -5.26 31.9 -9 20 C-9.33 20 -9.66 20 -10 20 Z " fill="#15ADFE" transform="translate(422,460)"/>
<path d="M0 0 C5.07587112 5.07587112 7.55869502 10.93784057 7.93275452 18.12214661 C7.93053391 18.91046371 7.92831329 19.69878082 7.92602539 20.51098633 C7.92594986 21.41154251 7.92587433 22.31209869 7.92579651 23.23994446 C7.92063522 24.1984581 7.91547394 25.15697174 7.91015625 26.14453125 C7.9087413 27.13627853 7.90732635 28.12802582 7.90586853 29.14982605 C7.90028418 32.30824843 7.88773452 35.46659915 7.875 38.625 C7.86998298 40.77018127 7.86542042 42.91536365 7.86132812 45.06054688 C7.85031987 50.3112254 7.83306597 55.56185056 7.8125 60.8125 C2.8625 60.8125 -2.0875 60.8125 -7.1875 60.8125 C-7.6825 57.8425 -7.6825 57.8425 -8.1875 54.8125 C-9.10982422 55.44478516 -9.10982422 55.44478516 -10.05078125 56.08984375 C-10.85902344 56.63769531 -11.66726563 57.18554688 -12.5 57.75 C-13.70076172 58.56791016 -13.70076172 58.56791016 -14.92578125 59.40234375 C-20.74201623 63.02870097 -27.57868609 62.4261252 -34.1875 61.8125 C-39.30805465 60.32760574 -43.73421573 58.15404257 -46.75 53.625 C-49.47991068 47.63219608 -49.89625465 41.2976374 -48.0625 35 C-45.81049686 29.19597372 -41.76402718 25.47402434 -36.1875 22.8125 C-27.40179525 19.98320525 -18.31452198 20.63527627 -9.1875 20.8125 C-9.51158211 17.6576599 -10.00892713 14.76678932 -11.1875 11.8125 C-15.91807216 8.69032238 -20.64478495 8.09973123 -26.1875 8.8125 C-32.34324182 10.07771176 -38.22463107 11.82487702 -44.1875 13.8125 C-44.1875 9.1925 -44.1875 4.5725 -44.1875 -0.1875 C-30.09787034 -7.23231483 -13.4940816 -9.26064423 0 0 Z M-30.1875 34.8125 C-32.85828675 37.71894441 -33.219785 39.00537512 -33.0625 42.9375 C-32.14038823 45.9672958 -31.66366511 46.94041033 -29.1875 48.8125 C-23.13149282 49.78222172 -17.27956687 49.41420584 -12.1875 45.8125 C-9.75337391 43.57054176 -8.33083311 42.0562615 -7.9453125 38.7109375 C-7.93835918 36.7431473 -8.05439521 34.77579564 -8.1875 32.8125 C-19.54584909 31.30239739 -19.54584909 31.30239739 -30.1875 34.8125 Z " fill="#15ADFE" transform="translate(872.1875,491.1875)"/>
<path d="M0 0 C5.5432683 4.4619326 9.62298743 11.48869808 10.90234375 18.53125 C11.66024843 28.84958087 11.6646562 37.53529945 5.90234375 46.53125 C5.47953125 47.19511719 5.05671875 47.85898437 4.62109375 48.54296875 C0.12340726 54.57039163 -7.66617247 59.26043865 -15.09765625 60.53125 C-26.01354068 61.44965374 -35.52130388 60.59579723 -44.4765625 53.69921875 C-51.64677893 47.00437579 -55.18304931 39.26829623 -56.09765625 29.53125 C-56.22500292 18.83412954 -53.73053697 9.27911219 -46.2890625 1.35546875 C-32.40390966 -10.20311659 -14.41188941 -10.33400858 0 0 Z M-36.484375 13.15234375 C-40.25901938 19.31097405 -39.89253417 26.57201266 -39.09765625 33.53125 C-37.78020512 38.34216707 -35.93485325 40.86490953 -32.03515625 43.96875 C-26.75513236 46.77727335 -21.69863138 47.61219371 -15.9375 45.8828125 C-10.55067587 43.52670624 -8.509556 40.83742945 -6.09765625 35.53125 C-4.05136838 29.3923864 -3.9919366 22.03108235 -6.72265625 16.09375 C-9.42746455 11.47343689 -12.96081295 8.2435311 -18.09765625 6.53125 C-25.700219 5.4815865 -31.42577724 7.23877172 -36.484375 13.15234375 Z " fill="#15ADFE" transform="translate(577.09765625,492.46875)"/>
<path d="M0 0 C6.34464516 5.98209401 9.30351519 12.37674096 10.1875 21.0625 C10.3102832 22.10374023 10.3102832 22.10374023 10.43554688 23.16601562 C10.84859441 26.82096565 11 30.31040127 11 34 C-3.52 34 -18.04 34 -33 34 C-30.01603269 42.19630997 -30.01603269 42.19630997 -23.9765625 46.3515625 C-13.57779747 49.76301506 -3.93046971 46.52371506 6 43 C6 47.62 6 52.24 6 57 C-5.34052595 62.24710902 -17.71825693 64.42329304 -29.9375 60.5 C-37.67851002 57.18908607 -43.99111737 51.73509172 -47.29296875 43.91015625 C-47.52628906 43.27980469 -47.75960938 42.64945313 -48 42 C-48.4125 40.96875 -48.825 39.9375 -49.25 38.875 C-51.41813171 27.67298614 -50.39482419 17.68092373 -44.71484375 7.75390625 C-40.36310818 1.34146024 -34.26655948 -3.35493031 -26.75 -5.4375 C-17.20411187 -7.0396071 -7.73826598 -6.08118276 0 0 Z M-30 12 C-32.38460666 15.20688482 -33.55788969 18.02100723 -34 22 C-32.91891551 23.30661495 -32.91891551 23.30661495 -30.31616211 23.11352539 C-28.56444702 23.10567017 -28.56444702 23.10567017 -26.77734375 23.09765625 C-24.88725586 23.09282227 -24.88725586 23.09282227 -22.95898438 23.08789062 C-21.61848891 23.07953403 -20.27799412 23.07106907 -18.9375 23.0625 C-17.59310058 23.0574866 -16.2486994 23.05292342 -14.90429688 23.04882812 C-11.60282059 23.03699488 -8.30143197 23.02050971 -5 23 C-5.27011981 21.56036703 -5.55406617 20.12332419 -5.84375 18.6875 C-6.00037109 17.88699219 -6.15699219 17.08648437 -6.31835938 16.26171875 C-7.33381248 12.89239298 -9.3022422 11.15820624 -12 9 C-18.09328756 5.95335622 -25.14770856 7.62110285 -30 12 Z " fill="#15ADFE" transform="translate(505,491)"/>
<path d="M0 0 C6.16345168 5.11312564 9.42652972 11.53037344 10.2624054 19.50276184 C10.34406287 22.17488819 10.33815218 24.83094266 10.29296875 27.50390625 C10.28872391 28.4677977 10.28447906 29.43168915 10.28010559 30.42478943 C10.26345681 33.47099015 10.22583111 36.51650288 10.1875 39.5625 C10.1724353 41.64126641 10.15875004 43.72004331 10.14648438 45.79882812 C10.11359864 50.86614616 10.06191324 55.93295687 10 61 C10.99 61.495 10.99 61.495 12 62 C8.81175432 63.59412284 5.37103338 63.10174735 1.875 63.0625 C1.12089844 63.05798828 0.36679687 63.05347656 -0.41015625 63.04882812 C-2.27347127 63.03703499 -4.13674555 63.01909942 -6 63 C-6.01458252 61.79988281 -6.02916504 60.59976563 -6.04418945 59.36328125 C-6.10245018 54.88268215 -6.17968033 50.40257107 -6.26245117 45.92236328 C-6.29557037 43.98852498 -6.32364224 42.05459304 -6.34643555 40.12060547 C-6.38022185 37.33000021 -6.4325483 34.54024309 -6.48828125 31.75 C-6.49467117 30.89446533 -6.5010611 30.03893066 -6.50764465 29.1574707 C-6.64447753 23.48727764 -7.64222705 19.17875118 -10 14 C-13.43193506 11.30856545 -17.31125506 11.59040387 -21.5234375 11.68359375 C-25.21448958 12.1551635 -27.29472974 13.49762501 -30 16 C-34.88343983 26.09450554 -33.09088721 39.2967837 -32.97949219 50.19360352 C-32.9615597 52.12252602 -32.94942562 54.05149975 -32.9375 55.98046875 C-32.92589844 57.11379639 -32.91429687 58.24712402 -32.90234375 59.41479492 C-33 62 -33 62 -34 63 C-36.53049402 63.07313567 -39.03304837 63.09247527 -41.5625 63.0625 C-42.27341797 63.05798828 -42.98433594 63.05347656 -43.71679688 63.04882812 C-45.47790013 63.03700864 -47.23896036 63.01907263 -49 63 C-49.87840996 59.90279155 -49.99435406 58.09354597 -49 55 C-49.66 54.67 -50.32 54.34 -51 54 C-50.91621094 53.443125 -50.83242188 52.88625 -50.74609375 52.3125 C-50.21521467 48.33426688 -49.89943985 44.73346223 -50.5 40.75 C-51 37 -51 37 -50.53735352 34.76098633 C-49.84240752 31.19027109 -49.87631053 27.69527454 -49.90234375 24.07421875 C-49.9037587 23.32662796 -49.90517365 22.57903717 -49.90663147 21.80879211 C-49.91220236 19.43498635 -49.9247494 17.06127697 -49.9375 14.6875 C-49.94251877 13.07226699 -49.94708101 11.4570325 -49.95117188 9.84179688 C-49.96216225 5.89449445 -49.97940668 1.94726353 -50 -2 C-46.49314042 -2.95611549 -43.39428019 -3.10211174 -39.75 -3.0625 C-38.67234375 -3.05347656 -37.5946875 -3.04445313 -36.484375 -3.03515625 C-35.66453125 -3.02355469 -34.8446875 -3.01195312 -34 -3 C-32.875 1.75 -32.875 1.75 -34 4 C-33.43152344 3.59007812 -32.86304688 3.18015625 -32.27734375 2.7578125 C-21.7348147 -4.59907755 -11.45419322 -6.62253843 0 0 Z " fill="#15ADFE" transform="translate(803,489)"/>
<path d="M0 0 C1 1 1 1 1.09765625 4.16015625 C1.08605469 5.44792969 1.07445312 6.73570312 1.0625 8.0625 C1.05347656 9.35285156 1.04445313 10.64320313 1.03515625 11.97265625 C1.02355469 12.97167969 1.01195312 13.97070312 1 15 C-2.23859201 15 -3.61034496 14.35100755 -6.5 13 C-12.02798259 10.69938372 -17.07212348 10.37222141 -23 11 C-23.99 11.495 -23.99 11.495 -25 12 C-25 13.98 -25 15.96 -25 18 C-20.5250954 20.36410054 -16.16240455 22.34962251 -11.375 24 C-5.53638904 26.09963879 -0.87568681 28.03970683 2.375 33.5625 C4.90727622 39.27608122 5.05441849 45.31889402 3.33984375 51.3046875 C0.58663144 57.62158154 -3.87882438 60.66235331 -10.0625 63.3125 C-20.67413658 65.16532543 -32.75765595 65.1615627 -42 59 C-42.40843923 56.28796348 -42.13336867 53.7562858 -42 51 C-42.66 50.67 -43.32 50.34 -44 50 C-43.01 50 -42.02 50 -41 50 C-41.33 48.02 -41.66 46.04 -42 44 C-38.83467782 44 -37.72336163 44.4881352 -35 45.9375 C-30.50170961 48.31443753 -27.11579239 49.13753871 -22 49.125 C-20.948125 49.12757813 -19.89625 49.13015625 -18.8125 49.1328125 C-15.91873122 49.12353635 -15.91873122 49.12353635 -13 48 C-11.90443673 44.44116309 -11.90443673 44.44116309 -13 41.0078125 C-15.78885492 38.20806362 -19.01671281 37.31843521 -22.6875 36.125 C-30.38143245 33.41562618 -36.68585093 30.90512655 -41 23.625 C-42.84292609 16.94439292 -42.77341686 11.92726585 -39.38671875 5.890625 C-35.29553243 0.31278224 -29.96115392 -2.64664834 -23.203125 -3.75 C-14.68199669 -4.71693655 -8.05423608 -2.94494095 0 0 Z " fill="#16ADFE" transform="translate(636,489)"/>
<path d="M0 0 C5.28 0 10.56 0 16 0 C16 31.35 16 62.7 16 95 C10.72 95 5.44 95 0 95 C0 63.65 0 32.3 0 0 Z " fill="#15ACFD" transform="translate(894,457)"/>
<path d="M0 0 C1.39456452 0.00667256 2.78911118 0.01863093 4.18359375 0.03515625 C4.89451172 0.03966797 5.60542969 0.04417969 6.33789062 0.04882812 C8.09899388 0.06064761 9.86005411 0.07858362 11.62109375 0.09765625 C12.43582487 15.7877308 12.73025614 31.4519465 12.74609375 47.16015625 C12.74859131 48.04261017 12.75108887 48.92506409 12.75366211 49.83425903 C12.75951713 52.35048417 12.75808232 54.86658621 12.75390625 57.3828125 C12.7558902 58.14831421 12.75787415 58.91381592 12.75991821 59.70251465 C12.73636779 64.98238221 12.73636779 64.98238221 11.62109375 66.09765625 C9.09059973 66.17079192 6.58804538 66.19013152 4.05859375 66.16015625 C3.34767578 66.15564453 2.63675781 66.15113281 1.90429688 66.14648438 C0.14319362 66.13466489 -1.61786661 66.11672888 -3.37890625 66.09765625 C-4.62608553 59.33415471 -4.52301474 52.62231724 -4.51171875 45.76171875 C-4.51267548 44.48662445 -4.5136322 43.21153015 -4.51461792 41.89779663 C-4.51529657 39.21324213 -4.51397042 36.52877957 -4.50927734 33.84423828 C-4.50354596 30.39742726 -4.5068867 26.95069354 -4.51284981 23.50388527 C-4.51731775 20.21482692 -4.51419775 16.9257781 -4.51171875 13.63671875 C-4.51374298 12.39516022 -4.51576721 11.15360168 -4.51785278 9.87442017 C-4.51470062 8.73588593 -4.51154846 7.59735168 -4.50830078 6.42431641 C-4.50750519 5.41728668 -4.50670959 4.41025696 -4.50588989 3.37271118 C-4.30086294 -0.30057754 -3.80466758 0.10996149 0 0 Z " fill="#16ADFE" transform="translate(653.37890625,485.90234375)"/>
<path d="M0 0 C3.34048682 2.48759657 4.7706556 3.89914686 5.625 8 C4.7706556 12.10085314 3.34048682 13.51240343 0 16 C-3.85278588 17.10079597 -6.02985776 17.34493946 -9.8125 16 C-12.85387605 13.21931333 -13.44153667 11.04885915 -14 7 C-11.16497222 0.06993208 -7.19780412 -2.02043624 0 0 Z " fill="#19ACFC" transform="translate(662,462)"/>
<path d="M0 0 C0.66 0 1.32 0 2 0 C2.51949219 1.14597656 3.03898437 2.29195313 3.57421875 3.47265625 C4.27826349 5.00278015 4.9827122 6.53271822 5.6875 8.0625 C6.02716797 8.81466797 6.36683594 9.56683594 6.71679688 10.34179688 C9.03420174 15.34479243 11.72989678 19.56512758 15 24 C16.07136051 26.30144109 17.07989717 28.6340213 18 31 C18.4125 31.9075 18.825 32.815 19.25 33.75 C20 36 20 36 19 39 C16.69 34.38 14.38 29.76 12 25 C11.34 25 10.68 25 10 25 C9.87761963 24.26483154 9.75523926 23.52966309 9.62915039 22.7722168 C9.02033491 20.08960145 8.19690988 18.07453283 6.93359375 15.64453125 C6.53076172 14.85755859 6.12792969 14.07058594 5.71289062 13.25976562 C5.08157227 12.04836914 5.08157227 12.04836914 4.4375 10.8125 C3.59928898 9.19585932 2.76447564 7.57745098 1.93359375 5.95703125 C1.56290771 5.24522705 1.19222168 4.53342285 0.81030273 3.80004883 C0 2 0 2 0 0 Z " fill="#7481FD" transform="translate(289,484)"/>
<path d="M0 0 C0.66 0 1.32 0 2 0 C5 5.75 5 5.75 5 8 C5.66 8.33 6.32 8.66 7 9 C7 9.99 7 10.98 7 12 C7.66 12 8.32 12 9 12 C9.24234375 12.556875 9.4846875 13.11375 9.734375 13.6875 C11.4532318 17.60120471 13.21212842 21.45844429 15.1875 25.25 C16.66369558 28.14450114 17.59289012 30.74312093 18 34 C15.22264744 31.5569726 13.82931165 28.98027577 12.22265625 25.66796875 C11.70896484 24.62189453 11.19527344 23.57582031 10.66601562 22.49804688 C10.13685547 21.40556641 9.60769531 20.31308594 9.0625 19.1875 C4.5586453 9.78736226 4.5586453 9.78736226 -1 1 C-0.67 0.67 -0.34 0.34 0 0 Z " fill="#8C7AFC" transform="translate(254,416)"/>
<path d="M0 0 C0.66 0.33 1.32 0.66 2 1 C1.649375 1.94875 1.29875 2.8975 0.9375 3.875 C-0.35026777 6.87060172 -0.35026777 6.87060172 1 9 C3.67477757 9.58657403 6.29905549 10.07768737 9 10.5 C11.70094451 10.92231263 14.32522243 11.41342597 17 12 C17.33 12.66 17.66 13.32 18 14 C10.09434168 13.26567996 2.61625589 12.28487677 -5 10 C-5 7 -5 7 -3.625 5.5625 C-3.08875 5.046875 -2.5525 4.53125 -2 4 C-0.82425289 1.90010348 -0.82425289 1.90010348 0 0 Z M-2 7 C-1 9 -1 9 -1 9 Z " fill="#21ADFD" transform="translate(197,483)"/>
<path d="M0 0 C-3.21201784 1.60600892 -5.70887021 0.05786315 -9 -1 C-9.66 -1.33 -10.32 -1.66 -11 -2 C-11 -2.66 -11 -3.32 -11 -4 C-11.98742187 -3.90460938 -12.97484375 -3.80921875 -13.9921875 -3.7109375 C-15.27351562 -3.60007812 -16.55484375 -3.48921875 -17.875 -3.375 C-19.78925781 -3.20097656 -19.78925781 -3.20097656 -21.7421875 -3.0234375 C-22.81726563 -3.01570313 -23.89234375 -3.00796875 -25 -3 C-25.66 -3.66 -26.32 -4.32 -27 -5 C-17.58440625 -7.95658741 -8.08859177 -4.94810016 0 0 Z " fill="#8980F6" transform="translate(263,400)"/>
<path d="M0 0 C2.07315082 2.64573533 3.75557002 5.25491797 5.26171875 8.2578125 C5.65810547 9.04800781 6.05449219 9.83820313 6.46289062 10.65234375 C6.86701172 11.46832031 7.27113281 12.28429687 7.6875 13.125 C8.10322266 13.94871094 8.51894531 14.77242188 8.94726562 15.62109375 C9.33978516 16.40871094 9.73230469 17.19632812 10.13671875 18.0078125 C10.49467529 18.72598145 10.85263184 19.44415039 11.22143555 20.18408203 C12 22 12 22 12 24 C9 23 9 23 7.83203125 21.0390625 C7.49558594 20.24242187 7.15914063 19.44578125 6.8125 18.625 C6.29623047 17.43777344 6.29623047 17.43777344 5.76953125 16.2265625 C5 14 5 14 5 11 C4.34 11 3.68 11 3 11 C2.34 8.36 1.68 5.72 1 3 C0.34 3 -0.32 3 -1 3 C-0.67 2.01 -0.34 1.02 0 0 Z " fill="#A173FB" transform="translate(275,416)"/>
<path d="M0 0 C-0.65226562 0.42410156 -1.30453125 0.84820312 -1.9765625 1.28515625 C-6.96672899 4.6340143 -11.1243315 7.79537865 -14.74609375 12.6171875 C-16 14 -16 14 -19 15 C-17.21649575 8.46048441 -11.8616909 3.94326682 -6.25 0.5 C-3 -1 -3 -1 0 0 Z " fill="#718AFA" transform="translate(235,397)"/>
<path d="M0 0 C2.31453234 0.03803909 4.6279917 0.15540654 6.9375 0.3125 C8.20464844 0.39113281 9.47179687 0.46976562 10.77734375 0.55078125 C14 1 14 1 16 3 C9.07 3 2.14 3 -5 3 C-5.33 3.66 -5.66 4.32 -6 5 C-7.32 4.34 -8.64 3.68 -10 3 C-6.83783053 1.1261218 -4.63834261 0.90166642 -1 1 C-0.67 0.67 -0.34 0.34 0 0 Z " fill="#1EB3FD" transform="translate(179,507)"/>
<path d="M0 0 C2.35716404 2.15454249 3.78966144 4.19719874 5.1875 7.0625 C5.53167969 7.75472656 5.87585938 8.44695312 6.23046875 9.16015625 C7 11 7 11 7 13 C7.66 13.33 8.32 13.66 9 14 C9.8515625 16.06640625 9.8515625 16.06640625 10.625 18.5625 C11.01558594 19.80193359 11.01558594 19.80193359 11.4140625 21.06640625 C11.60742188 21.70449219 11.80078125 22.34257812 12 23 C11.34 23.33 10.68 23.66 10 24 C9.18395001 22.0848421 8.37229368 20.16781166 7.5625 18.25 C6.88380859 16.64898437 6.88380859 16.64898437 6.19140625 15.015625 C5 12 5 12 4.46484375 9.671875 C4.31144531 9.12015625 4.15804688 8.5684375 4 8 C3.34 7.67 2.68 7.34 2 7 C1.26924352 4.6859378 0.59861742 2.35171131 0 0 Z " fill="#9976FB" transform="translate(295,456)"/>
<path d="M0 0 C0.99 0.33 1.98 0.66 3 1 C2.51917969 1.56203125 2.03835937 2.1240625 1.54296875 2.703125 C-0.17355619 5.25835707 -0.46984589 6.71251601 -0.6875 9.75 C-0.75195312 10.61882813 -0.81640625 11.48765625 -0.8828125 12.3828125 C-1.04168011 15.9308559 -1.06576094 19.44890916 -1 23 C-1.66 23 -2.32 23 -3 23 C-4.49224229 15.09111585 -3.96476028 7.15998904 0 0 Z " fill="#1CB4F9" transform="translate(134,516)"/>
<path d="M0 0 C4.75 1.875 4.75 1.875 7 3 C5.35433477 8.68502535 2.70967216 13.76681636 0 19 C-0.66 18.01 -1.32 17.02 -2 16 C-1.34 16 -0.68 16 0 16 C0.99 11.38 1.98 6.76 3 2 C2.01 1.67 1.02 1.34 0 1 C0 0.67 0 0.34 0 0 Z " fill="#24B9F5" transform="translate(141,608)"/>
<path d="M0 0 C2 3 2 3 3 6 C2 7 2 7 -1.81640625 7.09765625 C-3.39846682 7.09098089 -4.98051159 7.07901875 -6.5625 7.0625 C-7.36880859 7.05798828 -8.17511719 7.05347656 -9.00585938 7.04882812 C-11.00393756 7.03700518 -13.00197783 7.01906914 -15 7 C-15 6.67 -15 6.34 -15 6 C-11.04 6 -7.08 6 -3 6 C-2.67 4.68 -2.34 3.36 -2 2 C-1.34 2 -0.68 2 0 2 C0 1.34 0 0.68 0 0 Z " fill="#20AEF9" transform="translate(451,545)"/>
<path d="M0 0 C-3.59041173 1.06914483 -6.49474499 0.80302284 -10.20703125 0.32421875 C-15.78534579 -0.32333385 -21.39780396 -0.62545773 -27 -1 C-27 -1.33 -27 -1.66 -27 -2 C-17.8803404 -3.60935169 -8.72726908 -3.21048187 0 0 Z " fill="#22ADF8" transform="translate(868,488)"/>
<path d="M0 0 C0.66 0.33 1.32 0.66 2 1 C1.67 1.66 1.34 2.32 1 3 C1.66 3.33 2.32 3.66 3 4 C2.56816406 4.37898437 2.13632813 4.75796875 1.69140625 5.1484375 C-1.10609248 8.21082641 -2.70696114 11.93563457 -4.59765625 15.6015625 C-6 18 -6 18 -8 19 C-6.66617336 14.27097827 -4.60355296 10.34725575 -2.12109375 6.1484375 C-1.04475736 4.08577194 -0.45736808 2.27142349 0 0 Z " fill="#1DB8FA" transform="translate(140,557)"/>
<path d="M0 0 C0.86882812 0.06445312 1.73765625 0.12890625 2.6328125 0.1953125 C4.875 0.875 4.875 0.875 6.1796875 2.9296875 C6.40914062 3.57164062 6.63859375 4.21359375 6.875 4.875 C5.87919922 4.64103516 5.87919922 4.64103516 4.86328125 4.40234375 C3.98027344 4.20769531 3.09726563 4.01304687 2.1875 3.8125 C0.88232422 3.51666016 0.88232422 3.51666016 -0.44921875 3.21484375 C-3.28501276 2.85467721 -5.37289982 3.16590031 -8.125 3.875 C-8.455 3.215 -8.785 2.555 -9.125 1.875 C-5.90179544 -0.05892273 -3.72507919 -0.34470882 0 0 Z " fill="#8381FC" transform="translate(246.125,412.125)"/>
<path d="M0 0 C0.66 0 1.32 0 2 0 C4.18918532 4.27412372 6.30480157 8.50772417 8 13 C7.67 13.99 7.34 14.98 7 16 C5.82558465 13.89983377 4.66035988 11.79541245 3.5 9.6875 C3.16613281 9.09259766 2.83226562 8.49769531 2.48828125 7.88476562 C0.93174886 5.04171156 0 3.29339012 0 0 Z " fill="#8977FC" transform="translate(280,466)"/>
<path d="M0 0 C0.66 0.33 1.32 0.66 2 1 C1.649375 1.680625 1.29875 2.36125 0.9375 3.0625 C-0.23276126 6.72931862 0.30571439 9.2508577 1 13 C1 13.99 1 14.98 1 16 C-1 15 -1 15 -3 13 C-3.36933645 10.24627091 -3.18336678 7.79634339 -3 5 C-2.34 5 -1.68 5 -1 5 C-0.67 3.35 -0.34 1.7 0 0 Z " fill="#1CBDFA" transform="translate(139,592)"/>
<path d="M0 0 C1.5 1.3125 1.5 1.3125 3 3 C3 3.99 3 4.98 3 6 C3.66 6 4.32 6 5 6 C6.32 8.97 7.64 11.94 9 15 C8.01 15 7.02 15 6 15 C4.99267601 13.06629769 3.99436712 11.12789694 3 9.1875 C2.443125 8.10855469 1.88625 7.02960938 1.3125 5.91796875 C0 3 0 3 0 0 Z " fill="#8977FC" transform="translate(272,450)"/>
<path d="M0 0 C-6.02596573 1.0712828 -11.88909517 1.09945415 -18 1 C-13.61711557 -3.38288443 -5.0784979 -3.38566527 0 0 Z " fill="#21ACF7" transform="translate(797,487)"/>
<path d="M0 0 C1.90389849 2.85584773 2.69462177 4.9311762 3.625 8.1875 C4.01558594 9.53908203 4.01558594 9.53908203 4.4140625 10.91796875 C4.60742188 11.60503906 4.80078125 12.29210937 5 13 C4.01 12.67 3.02 12.34 2 12 C2 10.68 2 9.36 2 8 C1.34 8 0.68 8 0 8 C0 5.36 0 2.72 0 0 Z " fill="#24ADFA" transform="translate(424,468)"/>
<path d="M0 0 C2.95051654 3.45922629 5.25855517 6.7838704 7 11 C6.67 11.99 6.34 12.98 6 14 C5.54625 13.236875 5.0925 12.47375 4.625 11.6875 C3.46175508 9.76367186 2.2470585 7.87058776 1 6 C0.60986284 4.0103005 0.26797351 2.00980131 0 0 Z " fill="#9D75FA" transform="translate(288,442)"/>
<path d="M0 0 C1 3 1 3 -0.25 5.875 C-1.78529858 8.61660461 -3.34884991 11.32670938 -5 14 C-6 11 -6 11 -4.78515625 8.30078125 C-4.21667969 7.31464844 -3.64820312 6.32851563 -3.0625 5.3125 C-2.49660156 4.31863281 -1.93070313 3.32476563 -1.34765625 2.30078125 C-0.90292969 1.54152344 -0.45820313 0.78226563 0 0 Z " fill="#1EB7F8" transform="translate(131,576)"/>
<path d="M0 0 C2.52631142 3.12781414 4.42373366 6.29577411 6 10 C5.67 10.99 5.34 11.98 5 13 C4.7525 12.46375 4.505 11.9275 4.25 11.375 C2.96785323 8.80892413 2.96785323 8.80892413 0.8125 5.9375 C0.214375 4.968125 -0.38375 3.99875 -1 3 C-0.67 2.01 -0.34 1.02 0 0 Z " fill="#8D7BFC" transform="translate(312,489)"/>
<path d="M0 0 C-3.63 2.31 -7.26 4.62 -11 7 C-10 3 -10 3 -8.4765625 1.69921875 C-3.33333333 -1.11111111 -3.33333333 -1.11111111 0 0 Z " fill="#7F86F8" transform="translate(235,397)"/>
<path d="M0 0 C0.99 0.495 0.99 0.495 2 1 C2 1.66 2 2.32 2 3 C2.66 3 3.32 3 4 3 C4 5.31 4 7.62 4 10 C1.16625119 6.79663178 0.4794463 4.21912747 0 0 Z " fill="#1BB6FA" transform="translate(132,541)"/>
<path d="M0 0 C2.64465038 3.1254959 3.84414715 6.08788267 5 10 C-0.73529412 4.70588235 -0.73529412 4.70588235 -1 1 C-0.67 0.67 -0.34 0.34 0 0 Z " fill="#5296FB" transform="translate(337,538)"/>
<path d="M0 0 C0 0.33 0 0.66 0 1 C-9.41002278 3.48063781 -9.41002278 3.48063781 -14 2 C-14 1.67 -14 1.34 -14 1 C-9.32798795 -0.20568053 -4.78503708 -0.09382426 0 0 Z " fill="#25AFFA" transform="translate(710,485)"/>
<path d="M0 0 C0.33 0 0.66 0 1 0 C1.25 3.25 1.25 3.25 1 7 C-0.32 8.32 -1.64 9.64 -3 11 C-2.01 7.37 -1.02 3.74 0 0 Z " fill="#23ACF9" transform="translate(399,470)"/>
<path d="M0 0 C1.36511719 0.43119141 1.36511719 0.43119141 2.7578125 0.87109375 C3.45648438 1.09925781 4.15515625 1.32742188 4.875 1.5625 C4.875 1.8925 4.875 2.2225 4.875 2.5625 C3.24919034 2.44851335 1.62432843 2.32094341 0 2.1875 C-0.90492188 2.11789062 -1.80984375 2.04828125 -2.7421875 1.9765625 C-5.125 1.5625 -5.125 1.5625 -7.125 -0.4375 C-4.30685434 -1.84657283 -2.95222796 -0.94622691 0 0 Z " fill="#1AADFD" transform="translate(203.125,509.4375)"/>
<path d="M0 0 C3.16717283 1.58358642 4.73268318 2.45263699 6.3125 5.6875 C6.539375 6.450625 6.76625 7.21375 7 8 C3.83884224 6.63016497 3.0072908 6.0109362 1 3 C0.67 2.01 0.34 1.02 0 0 Z " fill="#9A79F9" transform="translate(264,402)"/>
<path d="M0 0 C0.6875 1.6875 0.6875 1.6875 1 4 C-0.3125 6.75 -0.3125 6.75 -2 9 C-2.66 9 -3.32 9 -4 9 C-2.80100302 5.9168649 -1.52299523 2.93720508 0 0 Z " fill="#5397F9" transform="translate(212,418)"/>
<path d="M0 0 C4.08072342 0.55144911 4.91330796 0.91330796 8 4 C3.545 3.01 3.545 3.01 -1 2 C-0.67 1.34 -0.34 0.68 0 0 Z " fill="#9879F9" transform="translate(255,397)"/>
<path d="M0 0 C1 4 1 4 1 4 Z " fill="#36AFEC" transform="translate(911,545)"/>
<path d="M0 0 C0 3 0 3 0 3 Z " fill="#768FFE" transform="translate(291,492)"/>
<path d="M0 0 C3 1 3 1 3 1 Z " fill="#29B7FD" transform="translate(705,536)"/>
<path d="" fill="#2BB7FF" transform="translate(0,0)"/>
<path d="M0 0 C3 1 3 1 3 1 Z " fill="#8A89E9" transform="translate(240,392)"/>
<path d="" fill="#2AB5FC" transform="translate(0,0)"/>
<path d="" fill="#27BAFE" transform="translate(0,0)"/>
<path d="" fill="#32B2F6" transform="translate(0,0)"/>
<path d="" fill="#30B3F6" transform="translate(0,0)"/>
<path d="M0 0 C2 1 2 1 2 1 Z " fill="#2CB5F9" transform="translate(560,536)"/>
<path d="" fill="#27B6FC" transform="translate(0,0)"/>
<path d="" fill="#2BB5FD" transform="translate(0,0)"/>
<path d="M0 0 C2 1 2 1 2 1 Z " fill="#2CB8FC" transform="translate(626,512)"/>
<path d="M0 0 C2 1 2 1 2 1 Z " fill="#28B8FF" transform="translate(192,511)"/>
<path d="M0 0 C2 1 2 1 2 1 Z " fill="#28BBFE" transform="translate(176,511)"/>
<path d="M0 0 C2 1 2 1 2 1 Z " fill="#2AB6FC" transform="translate(544,503)"/>
<path d="M0 0 C2 1 2 1 2 1 Z " fill="#2AB6FD" transform="translate(548,501)"/>
<path d="M0 0 C2 1 2 1 2 1 Z " fill="#31B8F8" transform="translate(773,488)"/>
<path d="M0 0 C2 1 2 1 2 1 Z " fill="#2EB1F4" transform="translate(572,488)"/>
<path d="M0 0 C2 1 2 1 2 1 Z " fill="#31B1F1" transform="translate(502,488)"/>
<path d="" fill="#7E8DFD" transform="translate(0,0)"/>
<path d="" fill="#838FFA" transform="translate(0,0)"/>
<path d="" fill="#3EACD8" transform="translate(0,0)"/>
<path d="" fill="#3BADDE" transform="translate(0,0)"/>
<path d="" fill="#31ACF6" transform="translate(0,0)"/>
<path d="" fill="#36B0EE" transform="translate(0,0)"/>
<path d="" fill="#30AEFE" transform="translate(0,0)"/>
<path d="" fill="#3AAFEF" transform="translate(0,0)"/>
<path d="" fill="#2CC2FC" transform="translate(0,0)"/>
<path d="" fill="#33BBF1" transform="translate(0,0)"/>
<path d="" fill="#31B1ED" transform="translate(0,0)"/>
<path d="" fill="#35B1FF" transform="translate(0,0)"/>
<path d="" fill="#30B2F8" transform="translate(0,0)"/>
<path d="" fill="#2EB8FC" transform="translate(0,0)"/>
<path d="" fill="#2FB6F8" transform="translate(0,0)"/>
<path d="" fill="#31BAF5" transform="translate(0,0)"/>
<path d="" fill="#29BFFD" transform="translate(0,0)"/>
<path d="" fill="#2FB3FB" transform="translate(0,0)"/>
<path d="" fill="#2EB4F6" transform="translate(0,0)"/>
<path d="" fill="#27B4FC" transform="translate(0,0)"/>
<path d="" fill="#38B2F0" transform="translate(0,0)"/>
<path d="" fill="#3AAEF8" transform="translate(0,0)"/>
<path d="" fill="#2DC2FF" transform="translate(0,0)"/>
<path d="" fill="#34B3F4" transform="translate(0,0)"/>
<path d="" fill="#2FB4F7" transform="translate(0,0)"/>
<path d="" fill="#2EC0FD" transform="translate(0,0)"/>
<path d="" fill="#2FB4F8" transform="translate(0,0)"/>
<path d="" fill="#2DBFFC" transform="translate(0,0)"/>
<path d="" fill="#30B2FB" transform="translate(0,0)"/>
<path d="" fill="#2DB3FA" transform="translate(0,0)"/>
<path d="" fill="#4FA4FF" transform="translate(0,0)"/>
<path d="" fill="#51A4FF" transform="translate(0,0)"/>
<path d="" fill="#2BC2FF" transform="translate(0,0)"/>
<path d="" fill="#2FBDFE" transform="translate(0,0)"/>
<path d="" fill="#31B4FC" transform="translate(0,0)"/>
<path d="" fill="#52A3FF" transform="translate(0,0)"/>
<path d="" fill="#2EB8FC" transform="translate(0,0)"/>
<path d="" fill="#30B5FF" transform="translate(0,0)"/>
<path d="" fill="#2AC0FF" transform="translate(0,0)"/>
<path d="" fill="#2AB6FB" transform="translate(0,0)"/>
<path d="" fill="#2EB6FC" transform="translate(0,0)"/>
<path d="" fill="#2BB6FC" transform="translate(0,0)"/>
<path d="" fill="#2CB7FC" transform="translate(0,0)"/>
<path d="" fill="#2EB7FD" transform="translate(0,0)"/>
<path d="" fill="#2EB4F9" transform="translate(0,0)"/>
<path d="" fill="#29B9FC" transform="translate(0,0)"/>
<path d="" fill="#2AB4FA" transform="translate(0,0)"/>
<path d="" fill="#2CB7FE" transform="translate(0,0)"/>
<path d="" fill="#32B8FD" transform="translate(0,0)"/>
<path d="" fill="#2FB6FF" transform="translate(0,0)"/>
<path d="" fill="#2FB6FE" transform="translate(0,0)"/>
<path d="" fill="#2FB8FF" transform="translate(0,0)"/>
<path d="" fill="#2FB9FF" transform="translate(0,0)"/>
<path d="" fill="#2FB9FF" transform="translate(0,0)"/>
<path d="" fill="#3AB0FC" transform="translate(0,0)"/>
<path d="" fill="#2DB9FF" transform="translate(0,0)"/>
<path d="" fill="#2CB9FF" transform="translate(0,0)"/>
<path d="" fill="#2BB7FE" transform="translate(0,0)"/>
<path d="" fill="#2CB8FD" transform="translate(0,0)"/>
<path d="" fill="#2BB7FD" transform="translate(0,0)"/>
<path d="" fill="#2CB7FE" transform="translate(0,0)"/>
<path d="" fill="#629CFE" transform="translate(0,0)"/>
<path d="" fill="#2EB5FB" transform="translate(0,0)"/>
<path d="" fill="#2DBAFD" transform="translate(0,0)"/>
<path d="" fill="#639BFE" transform="translate(0,0)"/>
<path d="" fill="#2DB7FB" transform="translate(0,0)"/>
<path d="" fill="#29B7FF" transform="translate(0,0)"/>
<path d="" fill="#30BAFF" transform="translate(0,0)"/>
<path d="" fill="#2EB9FF" transform="translate(0,0)"/>
<path d="" fill="#28B8FF" transform="translate(0,0)"/>
<path d="" fill="#2BB7FF" transform="translate(0,0)"/>
<path d="" fill="#2CB6FD" transform="translate(0,0)"/>
<path d="" fill="#3FB6EC" transform="translate(0,0)"/>
<path d="" fill="#26B7FE" transform="translate(0,0)"/>
<path d="" fill="#28B3FD" transform="translate(0,0)"/>
<path d="" fill="#2AB7FB" transform="translate(0,0)"/>
<path d="" fill="#28B9FC" transform="translate(0,0)"/>
<path d="" fill="#2AB8FD" transform="translate(0,0)"/>
<path d="" fill="#2BBBFF" transform="translate(0,0)"/>
<path d="" fill="#3AB8F1" transform="translate(0,0)"/>
<path d="" fill="#29B9FF" transform="translate(0,0)"/>
<path d="" fill="#6D94FE" transform="translate(0,0)"/>
<path d="" fill="#28B7FF" transform="translate(0,0)"/>
<path d="" fill="#2AB8FE" transform="translate(0,0)"/>
<path d="" fill="#29B6FD" transform="translate(0,0)"/>
<path d="" fill="#27B7FD" transform="translate(0,0)"/>
<path d="" fill="#2EB5FE" transform="translate(0,0)"/>
<path d="" fill="#7A91FD" transform="translate(0,0)"/>
<path d="" fill="#31B5F9" transform="translate(0,0)"/>
<path d="" fill="#24B8FC" transform="translate(0,0)"/>
<path d="" fill="#29B7FE" transform="translate(0,0)"/>
<path d="" fill="#27B4FD" transform="translate(0,0)"/>
<path d="" fill="#26B5FE" transform="translate(0,0)"/>
<path d="" fill="#28B3FB" transform="translate(0,0)"/>
<path d="" fill="#2CB3FB" transform="translate(0,0)"/>
<path d="" fill="#25B6FF" transform="translate(0,0)"/>
<path d="" fill="#30B5F9" transform="translate(0,0)"/>
<path d="" fill="#2AB6FA" transform="translate(0,0)"/>
<path d="" fill="#2BB5FE" transform="translate(0,0)"/>
<path d="" fill="#2BB6FD" transform="translate(0,0)"/>
<path d="" fill="#27B4FC" transform="translate(0,0)"/>
<path d="" fill="#24B3FD" transform="translate(0,0)"/>
<path d="" fill="#27B7FF" transform="translate(0,0)"/>
<path d="" fill="#28B8FE" transform="translate(0,0)"/>
<path d="" fill="#2AB8FE" transform="translate(0,0)"/>
<path d="" fill="#2CB4FE" transform="translate(0,0)"/>
<path d="" fill="#35B8FB" transform="translate(0,0)"/>
<path d="" fill="#36B3F4" transform="translate(0,0)"/>
<path d="" fill="#35B8FF" transform="translate(0,0)"/>
<path d="" fill="#30B5FF" transform="translate(0,0)"/>
<path d="" fill="#33B1EF" transform="translate(0,0)"/>
<path d="" fill="#2EB0F5" transform="translate(0,0)"/>
<path d="" fill="#3AB3F3" transform="translate(0,0)"/>
<path d="" fill="#36B1F3" transform="translate(0,0)"/>
<path d="" fill="#31AEF0" transform="translate(0,0)"/>
<path d="" fill="#3AB4F3" transform="translate(0,0)"/>
<path d="" fill="#37B0F3" transform="translate(0,0)"/>
<path d="" fill="#36BAFC" transform="translate(0,0)"/>
<path d="" fill="#2BB6FF" transform="translate(0,0)"/>
<path d="" fill="#37B2F4" transform="translate(0,0)"/>
<path d="" fill="#3DB1F1" transform="translate(0,0)"/>
<path d="" fill="#37B1F3" transform="translate(0,0)"/>
<path d="" fill="#35B6F8" transform="translate(0,0)"/>
<path d="" fill="#36B5F9" transform="translate(0,0)"/>
<path d="" fill="#39B3F3" transform="translate(0,0)"/>
<path d="" fill="#3BB2F2" transform="translate(0,0)"/>
<path d="" fill="#37B3F9" transform="translate(0,0)"/>
<path d="" fill="#31B6F9" transform="translate(0,0)"/>
<path d="" fill="#7D8FFD" transform="translate(0,0)"/>
<path d="" fill="#46ADEE" transform="translate(0,0)"/>
<path d="" fill="#828BFD" transform="translate(0,0)"/>
<path d="" fill="#39ACE7" transform="translate(0,0)"/>
<path d="" fill="#838BFB" transform="translate(0,0)"/>
<path d="" fill="#9389F5" transform="translate(0,0)"/>
<path d="" fill="#818EFA" transform="translate(0,0)"/>
<path d="" fill="#838EFA" transform="translate(0,0)"/>
<path d="" fill="#689CFA" transform="translate(0,0)"/>
<path d="" fill="#838FFB" transform="translate(0,0)"/>
<path d="" fill="#838FFA" transform="translate(0,0)"/>
<path d="" fill="#8390F9" transform="translate(0,0)"/>
<path d="" fill="#7594ED" transform="translate(0,0)"/>
<path d="" fill="#7B91E7" transform="translate(0,0)"/>
<path d="" fill="#908AE9" transform="translate(0,0)"/>
<path d="" fill="#868EEC" transform="translate(0,0)"/>
</svg>
